<?xml version="1.0" encoding="utf-8"?>
<!-- Svg Vector Icons : http://www.onlinewebfonts.com/icon -->
<!DOCTYPE svg PUBLIC "-//W3C//DTD SVG 1.1//EN" "http://www.w3.org/Graphics/SVG/1.1/DTD/svg11.dtd">
<svg version="1.1" xmlns="http://www.w3.org/2000/svg" xmlns:xlink="http://www.w3.org/1999/xlink" x="0px" y="0px" viewBox="0 0 256 256" enable-background="new 0 0 256 256" xml:space="preserve">
<metadata> Svg Vector Icons : http://www.onlinewebfonts.com/icon </metadata>
<g><g><g><path fill="#000000" d="M199.8,150.3c-12.2,0-23.3,4.8-31.6,12.6L137.6,140v-35c21.7-3.8,38.3-22.7,38.3-45.5c0-25.6-20.7-46.2-46.2-46.2c-25.5,0-46.2,20.7-46.2,46.2c0,22.8,16.5,41.7,38.3,45.5v34.9l-32.9,23.6c-6-5.9-13.7-10.2-22.3-12c-32-6.9-60,19.5-56,51.2c2.6,20.6,19.2,37.3,39.9,39.9c31.6,4,58-24,51.2-56.1c-0.7-3.5-1.9-6.8-3.4-9.9l31.5-22.6l29.1,21.8c-3.2,6.3-5.1,13.4-5.1,20.9c0,25.6,20.7,46.2,46.2,46.2c25.6,0,46.2-20.7,46.2-46.2C246,171,225.3,150.3,199.8,150.3z M56.2,166.3c7.7,0,13.9,6.2,13.9,13.9s-6.2,13.9-13.9,13.9c-7.7,0-13.9-6.2-13.9-13.9C42.3,172.5,48.6,166.3,56.2,166.3z M77,220.5H35.5v-6.3c0-8.5,6-16.1,14.5-16.1h12.4c8.5,0,14.5,7.5,14.5,16.1V220.5L77,220.5z M129.6,29.1c7.7,0,13.9,6.2,13.9,13.9c0,7.7-6.2,13.9-13.9,13.9c-7.7,0-13.9-6.2-13.9-13.9C115.7,35.4,121.9,29.1,129.6,29.1z M108.9,83.3v-6.3c0-8.5,6-16.1,14.5-16.1h12.4c8.5,0,14.5,7.5,14.5,16.1v6.3H108.9z M199.8,166.3c7.7,0,13.9,6.2,13.9,13.9s-6.2,13.9-13.9,13.9c-7.7,0-13.9-6.2-13.9-13.9S192.1,166.3,199.8,166.3z M220.5,220.5H179v-6.3c0-8.5,6-16.1,14.5-16.1H206c8.5,0,14.5,7.5,14.5,16.1V220.5L220.5,220.5z"/></g><g></g><g></g><g></g><g></g><g></g><g></g><g></g><g></g><g></g><g></g><g></g><g></g><g></g><g></g><g></g></g></g>
</svg>